<svg width="212" height="143" viewBox="0 0 212 143" fill="none" xmlns="http://www.w3.org/2000/svg">
<path opacity="0.1" d="M7.94369 136.276V139.146L2.20312 138.514V136.276H7.94369Z" fill="white"/>
<path d="M12.584 97.1268L45.6678 91.7112V123.22L14.2339 121.564L12.584 97.1268Z" fill="#F15A24"/>
<path opacity="0.05" d="M12.584 97.1268L45.6678 91.7112V123.22L14.2339 121.564L12.584 97.1268Z" fill="black"/>
<path d="M45.668 91.7112L85.0534 94.6978L82.8739 122.117L45.668 123.22V91.7112Z" fill="#F15A24"/>
<path opacity="0.1" d="M45.668 91.7112L85.0534 94.6978L82.8739 122.117L45.668 123.22V91.7112Z" fill="black"/>
<path d="M57.7415 82.2583L45.668 91.8751L84.9377 94.8616L91.3551 85.0202L57.7415 82.2583Z" fill="#F15A24"/>
<path d="M0.769531 86.7015L30.4456 83.0464L45.669 91.7988L12.705 97.2252L0.769531 86.7015Z" fill="#F15A24"/>
<path d="M52.7572 99.9815V142.912L37.3221 141.318L30.608 140.629L28.5625 140.414L21.8527 139.72L12.584 138.764V97.2249L45.5296 99.4819L52.7572 99.9815Z" fill="#F15A24"/>
<path d="M85.0539 94.8618V136.678L72.6807 139.066L66.6632 140.228L52.7578 142.912V100.033L85.0539 94.8618Z" fill="#F15A24"/>
<path opacity="0.05" d="M85.0539 94.8618V136.678L72.6807 139.066L66.6632 140.228L52.7578 142.912V100.033L85.0539 94.8618Z" fill="black"/>
<path d="M0.769531 106.134L12.6737 97.2249L52.7583 99.9426L46.8575 109.828L0.769531 106.134Z" fill="#F15A24"/>
<path opacity="0.1" d="M0.769531 106.134L12.6737 97.2249L52.7583 99.9426L46.8575 109.828L0.769531 106.134Z" fill="white"/>
<path d="M84.9061 94.8618L52.7578 100.15L63.2211 109.828L97.6572 103.863L84.9061 94.8618Z" fill="#F15A24"/>
<path opacity="0.1" d="M84.9061 94.8618L52.7578 100.15L63.2211 109.828L97.6572 103.863L84.9061 94.8618Z" fill="white"/>
<path opacity="0.1" d="M72.4515 138.614L66.9375 139.762V134.083L72.1024 132.672L72.4515 138.614Z" fill="white"/>
<path opacity="0.1" d="M79.5394 137.826L74.0254 138.974V130.145L79.1903 128.733L79.5394 137.826Z" fill="white"/>
<path fill-rule="evenodd" clip-rule="evenodd" d="M25.7449 119.061C25.0646 121.01 22.9566 122.43 20.4616 122.43C19.3658 122.43 18.3446 122.156 17.4863 121.684C18.0142 123.481 19.6757 124.793 21.6437 124.793C24.0364 124.793 25.9761 122.854 25.9761 120.461C25.9761 119.971 25.8948 119.5 25.7449 119.061Z" fill="#F1F2F3"/>
<mask id="mask0" mask-type="alpha" maskUnits="userSpaceOnUse" x="17" y="119" width="9" height="6">
<path fill-rule="evenodd" clip-rule="evenodd" d="M25.7449 119.061C25.0646 121.01 22.9566 122.43 20.4616 122.43C19.3658 122.43 18.3446 122.156 17.4863 121.684C18.0142 123.481 19.6757 124.793 21.6437 124.793C24.0364 124.793 25.9761 122.854 25.9761 120.461C25.9761 119.971 25.8948 119.5 25.7449 119.061Z" fill="white"/>
</mask>
<g mask="url(#mask0)">
<circle cx="22.8235" cy="124.007" r="1.57542" fill="#1D1F22"/>
<path d="M17.8333 123.912L17.7683 123.912L19.9695 124.85C20.497 125.075 21.0609 125.19 21.6273 125.19L22.3844 125.19C23.5373 125.19 24.5709 124.522 25.0464 123.468L25.0464 123.318C25.0464 123.247 24.9936 123.185 24.9235 123.174C24.4924 123.109 24.0551 123.147 23.6463 123.285L23.2679 123.412L22.0871 123.707C21.5482 123.842 20.9825 123.848 20.434 123.725L19.9728 123.621C19.5321 123.522 19.0758 123.563 18.6669 123.74C18.4046 123.854 18.1212 123.912 17.8333 123.912Z" fill="#4D9AF5"/>
</g>
<path fill-rule="evenodd" clip-rule="evenodd" d="M36.7089 119.777C37.1947 121.809 39.1946 123.436 41.7108 123.647C42.7665 123.735 43.7741 123.563 44.6484 123.19C44.0641 124.892 42.4498 126.115 40.5499 126.115C38.1571 126.115 36.2175 124.175 36.2175 121.783C36.2175 121.059 36.395 120.376 36.7089 119.777Z" fill="#F1F2F3"/>
<mask id="mask1" mask-type="alpha" maskUnits="userSpaceOnUse" x="36" y="119" width="9" height="8">
<path fill-rule="evenodd" clip-rule="evenodd" d="M37.0096 119.28C37.1423 121.771 39.2045 123.751 41.7291 123.751C42.9008 123.751 43.973 123.324 44.7988 122.618C44.4091 124.611 42.6537 126.114 40.5471 126.114C38.1544 126.114 36.2147 124.174 36.2147 121.782C36.2147 120.85 36.509 119.987 37.0096 119.28Z" fill="white"/>
</mask>
<g mask="url(#mask1)">
<circle r="1.57542" transform="matrix(-1 0 0 1 39.366 125.326)" fill="#1D1F22"/>
<path d="M42.6727 125.327L43.2708 125.351C44.1082 125.385 44.7695 126.074 44.7695 126.912H41.2189C40.3294 126.912 39.456 126.675 38.6888 126.225L35.7695 124.512C35.7695 123.799 36.5397 123.352 37.1587 123.706L38.8022 124.645C39.1084 124.82 39.4551 124.912 39.8078 124.912H40.6762C41.0684 124.912 41.4574 124.984 41.8237 125.124L41.9806 125.184C42.202 125.269 42.4358 125.317 42.6727 125.327Z" fill="#4D9AF5"/>
</g>
<path fill-rule="evenodd" clip-rule="evenodd" d="M36.1738 132.205C34.9568 129.969 32.7175 128.414 30.0847 128.275C27.4482 128.137 25.0548 129.452 23.6103 131.552C24.6807 129.038 27.2373 127.337 30.125 127.489C33.0092 127.641 35.3707 129.596 36.1738 132.205Z" fill="#F1F2F3"/>
<path fill-rule="evenodd" clip-rule="evenodd" d="M37.1184 132.427C36.8834 132.201 36.5491 132.099 36.223 132.186C35.9043 132.272 35.6695 132.518 35.5746 132.821C35.6108 132.482 35.8506 132.184 36.1998 132.091C36.5559 131.995 36.9199 132.141 37.1184 132.427Z" fill="#F1F2F3"/>
<path fill-rule="evenodd" clip-rule="evenodd" d="M22.8298 131.574C23.1128 131.423 23.456 131.414 23.7438 131.58C24.0359 131.749 24.1999 132.057 24.2063 132.383C24.269 132.039 24.1147 131.679 23.7951 131.494C23.4795 131.312 23.0955 131.355 22.8298 131.574Z" fill="#F1F2F3"/>
<path d="M115.726 39.0204L115.728 39.022C115.73 39.0273 115.731 39.031 115.733 39.0363C115.754 39.0936 115.791 39.1392 115.836 39.1743C115.871 39.2014 115.915 39.2217 115.961 39.234C116.883 39.4528 117.855 39.4594 118.822 39.2786C118.83 39.2776 118.834 39.2807 118.839 39.2781C118.846 39.2771 118.853 39.2723 118.861 39.2713C120.755 38.9095 122.626 37.8279 124.059 36.1715C126.272 33.6188 125.83 31.6534 124.894 29.2057L126.547 27.2963C126.672 27.1527 126.66 26.9398 126.521 26.8181C126.372 26.6847 126.171 26.7148 126.046 26.8585L124.392 28.7679C121.848 28.1762 119.846 28.0091 117.631 30.564C115.455 33.0701 114.708 36.3866 115.726 39.0203L115.726 39.0204ZM115.964 36.519L117.67 36.5167L116.193 38.2206C116.042 37.6753 115.966 37.1042 115.964 36.519L115.964 36.519ZM116.441 33.8372L119.998 33.8331L118.261 35.837L115.981 35.8408C116.045 35.1748 116.198 34.5001 116.441 33.8372L116.441 33.8372ZM118.008 31.1587L122.321 31.152L120.586 33.1538L116.738 33.1592C117.067 32.4617 117.488 31.7852 118.008 31.1587L118.008 31.1587ZM121.615 37.4146L121.088 33.5918L122.824 31.5879L123.418 35.8759C122.871 36.4816 122.261 36.9945 121.615 37.4146L121.615 37.4146ZM119.075 38.5392L118.761 36.2734L120.498 34.2695L120.986 37.8041C120.368 38.1375 119.724 38.386 119.075 38.5392L119.075 38.5392ZM116.695 38.6586L118.174 36.9526L118.409 38.6516C117.83 38.7309 117.257 38.7323 116.695 38.6587L116.695 38.6586ZM124 35.1693L123.412 30.9089L124.384 29.786C125.101 31.7316 125.372 33.2787 124 35.1693L124 35.1693ZM123.883 29.3519L122.91 30.4748L118.624 30.4816C120.306 28.8524 121.868 28.9079 123.883 29.3519L123.883 29.3519Z" fill="#F15A24"/>
<path d="M117.996 56.736L117.994 56.7379C117.989 56.7401 117.985 56.7403 117.98 56.7424C117.921 56.7604 117.874 56.7946 117.836 56.8377C117.807 56.8709 117.784 56.9132 117.77 56.9587C117.499 57.8671 117.437 58.8373 117.562 59.8127C117.563 59.8201 117.559 59.824 117.562 59.8295C117.562 59.8369 117.567 59.8442 117.567 59.8516C117.82 61.7631 118.794 63.693 120.366 65.2183C122.788 67.573 124.776 67.2435 127.273 66.4487L129.085 68.2079C129.221 68.3408 129.434 68.3409 129.564 68.2091C129.705 68.0673 129.687 67.8648 129.551 67.7319L127.738 65.9726C128.474 63.4664 128.755 61.4767 126.33 59.1203C123.952 56.8044 120.684 55.8696 117.996 56.7361L117.996 56.736ZM120.48 57.1162L120.385 58.8198L118.768 57.2483C119.321 57.128 119.896 57.0849 120.48 57.1161L120.48 57.1162ZM123.13 57.7452L122.932 61.2968L121.03 59.4489L121.156 57.1723C121.817 57.2741 122.482 57.4654 123.13 57.7452L123.13 57.7452ZM125.715 59.4623L125.476 63.7683L123.576 61.9222L123.79 58.0804C124.468 58.4483 125.119 58.9072 125.715 59.4623L125.715 59.4623ZM119.264 62.7073L123.111 62.3985L125.012 64.2464L120.697 64.5946C120.124 64.0141 119.647 63.3762 119.264 62.7074L119.264 62.7073ZM118.286 60.1074L120.566 59.9232L122.468 61.7711L118.911 62.0574C118.613 61.4214 118.402 60.7641 118.286 60.1075L118.286 60.1074ZM118.302 57.7246L119.921 59.2979L118.212 59.4356C118.165 58.8537 118.197 58.2808 118.302 57.7246L118.302 57.7246ZM121.37 65.2163L125.657 64.8715L126.722 65.9061C124.739 66.5117 123.179 66.6938 121.37 65.2163L121.37 65.2163ZM127.184 65.4303L126.119 64.3956L126.356 60.1158C127.887 61.8878 127.742 63.4448 127.184 65.4302L127.184 65.4303Z" fill="#F15A24"/>
<path d="M150.428 42.593L150.427 42.5956C150.424 42.6004 150.421 42.6026 150.418 42.6075C150.379 42.655 150.359 42.71 150.352 42.7667C150.346 42.8105 150.351 42.8582 150.364 42.9044C150.647 43.8091 151.138 44.6483 151.787 45.387C151.792 45.3929 151.791 45.398 151.796 45.4013C151.801 45.4071 151.808 45.4107 151.813 45.4165C153.091 46.86 154.977 47.9166 157.133 48.303C160.458 48.9019 161.922 47.518 163.548 45.4635L166.034 45.9098C166.221 45.9438 166.398 45.8247 166.432 45.643C166.47 45.4463 166.342 45.2887 166.154 45.2547L163.668 44.8085C162.878 42.319 161.999 40.512 158.671 39.9128C155.405 39.3213 152.172 40.3727 150.428 42.593L150.428 42.593ZM152.7 41.5203L153.573 42.9861L151.354 42.5865C151.745 42.1776 152.198 41.8209 152.7 41.5202L152.7 41.5203ZM155.249 40.5608L157.069 43.6171L154.46 43.1474L153.292 41.189C153.897 40.9039 154.555 40.6909 155.249 40.5609L155.249 40.5608ZM158.352 40.5402L160.561 44.2447L157.953 43.7754L155.984 40.47C156.751 40.3964 157.548 40.4129 158.352 40.5402L158.352 40.5402ZM154.816 46.8364L157.833 44.4307L160.443 44.9004L157.059 47.6004C156.259 47.4395 155.507 47.1774 154.816 46.8365L154.816 46.8364ZM152.552 45.227L154.34 43.8001L156.949 44.2698L154.16 46.4948C153.558 46.1337 153.015 45.7068 152.552 45.2271L152.552 45.227ZM151.234 43.2418L153.456 43.6418L152.115 44.7113C151.751 44.2546 151.457 43.7621 151.234 43.2419L151.234 43.2418ZM157.964 47.7404L161.327 45.0587L162.789 45.3211C161.482 46.9316 160.291 47.9544 157.964 47.7403L157.964 47.7404ZM162.906 44.6683L161.444 44.4059L159.249 40.724C161.509 41.3381 162.259 42.71 162.906 44.6683L162.906 44.6683Z" fill="#F15A24"/>
<path opacity="0.3" d="M85.2169 51.2628C85.2113 51.2653 85.2035 51.2674 85.1991 51.2707C85.1975 51.2721 85.1962 51.2714 85.1945 51.2729C85.1928 51.2744 85.1921 51.2756 85.1912 51.2759C85.1871 51.2801 85.183 51.2843 85.1779 51.2887C85.1731 51.2941 85.167 51.2988 85.1635 51.3049C85.1613 51.3086 85.1599 51.311 85.1575 51.3137C85.1568 51.3149 85.1548 51.3155 85.1551 51.3164C84.8215 51.9328 84.631 52.6199 84.574 53.334C84.5731 53.3384 84.5709 53.3421 84.571 53.3462C84.5703 53.3515 84.5719 53.3573 84.5724 53.3633C84.4674 54.7665 84.8843 56.2716 85.7959 57.5633C87.0581 59.3494 88.8315 60.1033 91.0668 59.8089L92.1821 61.3895C92.2225 61.4466 92.3035 61.4609 92.3616 61.4207C92.4073 61.3889 92.4259 61.3335 92.4125 61.2835C92.4086 61.2691 92.4021 61.2565 92.3934 61.2434L91.2774 59.664C91.9763 58.3394 92.162 57.0463 91.8282 55.8007C91.663 55.1842 91.3717 54.5798 90.9545 53.9886C89.571 52.0302 87.332 50.9566 85.2506 51.2527C85.2487 51.2532 85.248 51.2544 85.2458 51.254L85.236 51.2566C85.2297 51.2562 85.2234 51.26 85.2168 51.2628L85.2169 51.2628ZM87.1853 51.6154L86.7456 53.2452L85.4998 51.4814C86.0594 51.4282 86.6289 51.4742 87.1854 51.6154L87.1853 51.6154ZM85.2888 51.6285L86.5345 53.3923L84.8388 53.2435C84.8953 52.6757 85.0467 52.1308 85.2887 51.6285L85.2888 51.6285ZM84.8202 53.4976L86.7266 53.6651L88.0394 55.5231L85.0026 55.2571C84.8512 54.6688 84.7901 54.0748 84.8201 53.4976L84.8202 53.4976ZM90.669 54.1217L89.7556 57.5078L88.4428 55.6497L89.2616 52.6152C89.7968 53.0122 90.2839 53.5023 90.6955 54.0723C90.6844 54.0856 90.6741 54.1017 90.669 54.1216L90.669 54.1217ZM86.0211 57.3443C86.0018 57.3423 85.983 57.3463 85.965 57.3531C85.5656 56.7736 85.2677 56.1526 85.0752 55.5197L88.2317 55.7968L89.5445 57.6549L86.0211 57.3443ZM86.1532 57.6115L89.7361 57.9257L90.8992 59.5717C88.8888 59.8026 87.3318 59.1586 86.1532 57.6114L86.1532 57.6115ZM91.1116 59.4263L89.9492 57.7791L90.8785 54.3353C91.9415 55.9618 92.0196 57.632 91.1116 59.4264L91.1116 59.4263ZM89.0388 52.4578C89.0378 52.458 89.0378 52.458 89.0381 52.459L88.2506 55.3768L86.9376 53.5178L87.4327 51.6859C87.9905 51.8555 88.5329 52.1157 89.0388 52.4577L89.0388 52.4578Z" fill="#F15A24"/>
<path opacity="0.3" d="M110.482 95.4115C110.48 95.4174 110.476 95.4245 110.475 95.4299C110.475 95.4322 110.474 95.4326 110.474 95.4349C110.474 95.4371 110.474 95.4385 110.474 95.4394C110.474 95.4452 110.475 95.451 110.475 95.4578C110.475 95.465 110.475 95.4726 110.477 95.4794C110.478 95.4834 110.479 95.4861 110.479 95.4897C110.48 95.4911 110.479 95.4929 110.48 95.4933C110.714 96.1541 111.096 96.7561 111.587 97.2772C111.59 97.2808 111.591 97.2849 111.594 97.2876C111.598 97.2916 111.603 97.2944 111.608 97.298C112.579 98.3168 113.975 99.0167 115.544 99.2063C117.716 99.4675 119.464 98.6572 120.744 96.8015L122.665 97.0338C122.734 97.0421 122.799 96.9916 122.808 96.9215C122.815 96.8663 122.787 96.8154 122.741 96.7918C122.727 96.785 122.714 96.7814 122.698 96.779L120.778 96.5481C120.264 95.1414 119.429 94.1367 118.281 93.5491C117.713 93.2583 117.069 93.0692 116.351 92.9823C113.97 92.6956 111.673 93.637 110.497 95.3797C110.496 95.3815 110.496 95.3828 110.494 95.3842L110.49 95.3931C110.485 95.3976 110.484 95.4048 110.481 95.4115L110.482 95.4115ZM112.063 94.1875L112.977 95.6065L110.833 95.3482C111.169 94.8973 111.585 94.5056 112.063 94.1875L112.063 94.1875ZM110.801 95.6034L112.945 95.8617L111.698 97.0201C111.314 96.5974 111.011 96.1198 110.801 95.6034L110.801 95.6034ZM111.874 97.2042L113.276 95.9021L115.535 96.174L113.301 98.2487C112.763 97.9665 112.282 97.6136 111.874 97.2043L111.874 97.2042ZM116.258 93.2833L118.158 96.2314L115.899 95.9596L114.197 93.3174C114.85 93.1865 115.54 93.1537 116.239 93.2306C116.242 93.2477 116.247 93.2662 116.258 93.2833L116.258 93.2833ZM115.533 98.8924C115.518 98.9054 115.509 98.922 115.502 98.94C114.804 98.8478 114.143 98.6523 113.545 98.3708L115.867 96.2148L118.126 96.4866L115.533 98.8924ZM115.82 98.9736L118.455 96.526L120.456 96.7668C119.279 98.4131 117.758 99.1366 115.819 98.9735L115.82 98.9736ZM120.491 96.5117L118.489 96.2697L116.557 93.2711C118.477 93.5731 119.768 94.635 120.491 96.5118L120.491 96.5117ZM113.931 93.3772C113.93 93.3781 113.93 93.3781 113.931 93.3785L115.568 95.9192L113.308 95.6469L112.281 94.0512C112.781 93.7511 113.338 93.5231 113.931 93.3771L113.931 93.3772Z" fill="#F15A24"/>
<path opacity="0.3" d="M200.433 108.352C200.437 108.357 200.441 108.364 200.445 108.367C200.447 108.368 200.447 108.37 200.449 108.371C200.451 108.372 200.452 108.372 200.453 108.373C200.458 108.376 200.463 108.379 200.469 108.383C200.475 108.386 200.481 108.39 200.488 108.392C200.492 108.393 200.495 108.394 200.498 108.395C200.5 108.396 200.501 108.398 200.501 108.397C201.185 108.551 201.898 108.549 202.601 108.41C202.605 108.41 202.61 108.411 202.613 108.41C202.619 108.409 202.624 108.406 202.63 108.404C204.009 108.125 205.345 107.316 206.341 106.088C207.719 104.39 207.964 102.478 207.076 100.406L208.295 98.9047C208.339 98.8504 208.331 98.7685 208.277 98.7235C208.234 98.6881 208.175 98.6853 208.131 98.7117C208.118 98.7193 208.107 98.729 208.097 98.7409L206.879 100.243C205.415 99.9289 204.12 100.1 203.011 100.759C202.462 101.085 201.959 101.529 201.503 102.091C199.993 103.953 199.565 106.399 200.414 108.322C200.415 108.324 200.417 108.324 200.417 108.327L200.422 108.335C200.423 108.342 200.429 108.347 200.433 108.352L200.433 108.352ZM200.239 106.362L201.927 106.344L200.567 108.021C200.364 107.496 200.254 106.936 200.239 106.362L200.239 106.362ZM200.766 108.184L202.126 106.507L202.442 108.18C201.88 108.279 201.315 108.281 200.766 108.184L200.766 108.184ZM202.692 108.129L202.337 106.248L203.77 104.481L204.336 107.477C203.811 107.782 203.256 108.001 202.692 108.129L202.692 108.129ZM201.709 102.329L205.216 102.292L203.782 104.059L200.64 104.092C200.877 103.47 201.217 102.868 201.654 102.317C201.67 102.324 201.688 102.33 201.709 102.329L201.709 102.329ZM206.069 105.931C206.073 105.95 206.082 105.967 206.093 105.983C205.644 106.524 205.126 106.979 204.569 107.336L203.981 104.222L205.414 102.455L206.069 105.931ZM206.291 105.731L205.623 102.197L206.893 100.632C207.659 102.505 207.461 104.178 206.291 105.732L206.291 105.731ZM206.695 100.467L205.424 102.032L201.858 102.07C203.135 100.606 204.722 100.079 206.695 100.467L206.695 100.467ZM200.548 104.349C200.549 104.35 200.549 104.35 200.55 104.35L203.572 104.318L202.138 106.085L200.24 106.104C200.252 105.522 200.356 104.929 200.548 104.349L200.548 104.349Z" fill="#F15A24"/>
<path opacity="0.3" d="M120.965 3.84167C120.962 3.8468 120.957 3.85274 120.955 3.8578C120.954 3.85996 120.953 3.86003 120.952 3.86219C120.951 3.86434 120.951 3.86576 120.951 3.8665C120.95 3.87223 120.948 3.87796 120.946 3.88443C120.945 3.89158 120.943 3.89879 120.943 3.90587C120.943 3.91011 120.943 3.91294 120.943 3.91651C120.943 3.91793 120.941 3.91941 120.942 3.92009C120.991 4.6192 121.2 5.30116 121.535 5.93425C121.537 5.93842 121.537 5.94267 121.539 5.9461C121.541 5.95094 121.546 5.95498 121.549 5.95975C122.214 7.20002 123.374 8.24608 124.836 8.84639C126.86 9.67574 128.761 9.35973 130.489 7.91136L132.278 8.64613C132.343 8.67266 132.419 8.64122 132.446 8.57607C132.468 8.52468 132.454 8.46799 132.416 8.43304C132.405 8.42296 132.392 8.41578 132.378 8.40941L130.589 7.67607C130.467 6.18331 129.93 4.99267 128.979 4.12095C128.509 3.68949 127.939 3.336 127.269 3.06119C125.051 2.15157 122.586 2.44784 120.988 3.81499C120.987 3.81648 120.987 3.81789 120.985 3.8187L120.978 3.82613C120.973 3.82924 120.969 3.83579 120.965 3.84166L120.965 3.84167ZM122.815 3.08237L123.319 4.69349L121.321 3.87419C121.765 3.52888 122.27 3.26197 122.815 3.08237L122.815 3.08237ZM121.222 4.11159L123.22 4.9309L121.71 5.71574C121.453 5.2063 121.288 4.66533 121.222 4.11157L121.222 4.11159ZM121.83 5.94004L123.529 5.05791L125.634 5.92075L122.929 7.32663C122.485 6.91155 122.115 6.44321 121.83 5.9401L121.83 5.94004ZM127.1 3.32669L128.147 6.67386L126.042 5.81102L125.104 2.81127C125.769 2.85884 126.443 3.01082 127.096 3.27088C127.094 3.288 127.094 3.30713 127.1 3.32666L127.1 3.32669ZM124.909 8.54075C124.891 8.54942 124.878 8.56286 124.866 8.57831C124.218 8.30384 123.633 7.93975 123.131 7.50918L125.943 6.04843L128.048 6.91127L124.909 8.54075ZM125.164 8.69526L128.355 7.03688L130.22 7.80118C128.648 9.07525 126.989 9.36787 125.164 8.69517L125.164 8.69526ZM130.321 7.56454L128.456 6.79883L127.391 3.39445C129.161 4.19608 130.124 5.56322 130.321 7.56461L130.321 7.56454ZM124.831 2.79806C124.831 2.79881 124.831 2.79881 124.831 2.79948L125.733 5.68395L123.628 4.82044L123.062 3.00901C123.624 2.85267 124.221 2.78102 124.831 2.798L124.831 2.79806Z" fill="#F15A24"/>
<path opacity="0.3" d="M55.2733 66.5696C55.2757 66.5753 55.2776 66.5831 55.2807 66.5875C55.2821 66.5893 55.2814 66.5905 55.2828 66.5922C55.2842 66.594 55.2854 66.5947 55.2857 66.5957C55.2897 66.5999 55.2938 66.6041 55.2981 66.6093C55.3033 66.6143 55.3079 66.6205 55.3139 66.6242C55.3175 66.6265 55.3199 66.628 55.3225 66.6304C55.3237 66.6312 55.3242 66.6332 55.3251 66.6329C55.9316 66.9842 56.613 67.1944 57.3251 67.272C57.3295 67.273 57.3331 67.2753 57.3372 67.2753C57.3425 67.2761 57.3483 67.2748 57.3543 67.2744C58.754 67.4198 60.2705 67.0466 61.5879 66.1726C63.4097 64.9624 64.2144 63.2115 63.9847 60.9687L65.5968 59.8994C65.655 59.8608 65.6717 59.7802 65.6331 59.7209C65.6026 59.6743 65.5478 59.6542 65.4975 59.6661C65.483 59.6695 65.4701 59.6757 65.4568 59.684L63.8459 60.754C62.542 60.0172 61.2548 59.7943 60.0001 60.092C59.3791 60.2393 58.7665 60.5131 58.1636 60.913C56.166 62.2394 55.0283 64.4465 55.2642 66.5356C55.2646 66.5375 55.2658 66.5383 55.2653 66.5405L55.2677 66.5503C55.2671 66.5566 55.2707 66.563 55.2733 66.5697L55.2733 66.5696ZM55.6825 64.6121L57.299 65.0987L55.5 66.2931C55.4629 65.7322 55.5254 65.1642 55.6826 64.6121L55.6825 64.6121ZM55.6409 66.5083L57.4399 65.3139L57.2423 67.0047C56.6763 66.9318 56.136 66.7648 55.6409 66.5083L55.6409 66.5083ZM57.4957 67.0306L57.7181 65.1298L59.6133 63.8712L59.2598 66.8991C58.6673 67.0334 58.0719 67.0773 57.4957 67.0307L57.4957 67.0306ZM58.2883 61.2022L61.6466 62.213L59.7515 63.4716L56.7419 62.5656C57.1541 62.042 57.658 61.5693 58.2398 61.1744C58.2527 61.1858 58.2685 61.1965 58.2883 61.2022L58.2883 61.2022ZM61.3755 65.9412C61.3729 65.9604 61.3764 65.9793 61.3827 65.9975C60.7919 66.38 60.1625 66.6599 59.5243 66.8341L59.8924 63.6869L61.7876 62.4282L61.3755 65.9412ZM61.6464 65.8168L62.0638 62.2445L63.7427 61.1294C63.9155 63.1456 63.2269 64.6834 61.6463 65.8168L61.6464 65.8168ZM63.6035 60.9129L61.9235 62.0273L58.5079 60.999C60.1644 59.9834 61.8361 59.9535 63.6036 60.9129L63.6035 60.9129ZM56.5781 62.7837C56.5783 62.7847 56.5783 62.7847 56.5793 62.7845L59.4732 63.6558L57.5771 64.9147L55.7601 64.3669C55.9458 63.8142 56.2215 63.2796 56.578 62.7838L56.5781 62.7837Z" fill="#F15A24"/>
<path opacity="0.3" d="M97.9745 17.6765C97.9769 17.6822 97.9787 17.69 97.9818 17.6945C97.9833 17.6962 97.9825 17.6974 97.984 17.6992C97.9854 17.7009 97.9866 17.7016 97.9868 17.7026C97.9909 17.7068 97.995 17.711 97.9992 17.7162C98.0045 17.7212 98.009 17.7274 98.015 17.7311C98.0186 17.7334 98.021 17.7349 98.0237 17.7374C98.0249 17.7381 98.0253 17.7401 98.0263 17.7399C98.6328 18.0911 99.3141 18.3013 100.026 18.3789C100.031 18.3799 100.034 18.3822 100.038 18.3823C100.044 18.3831 100.049 18.3817 100.055 18.3813C101.455 18.5268 102.972 18.1535 104.289 17.2795C106.111 16.0694 106.916 14.3185 106.686 12.0756L108.298 11.0064C108.356 10.9677 108.373 10.8871 108.334 10.8279C108.304 10.7812 108.249 10.7611 108.199 10.773C108.184 10.7765 108.171 10.7826 108.158 10.791L106.547 11.861C105.243 11.1241 103.956 10.9012 102.701 11.1989C102.08 11.3462 101.468 11.62 100.865 12.0199C98.8672 13.3464 97.7295 15.5534 97.9653 17.6425C97.9658 17.6445 97.967 17.6452 97.9665 17.6474L97.9688 17.6572C97.9683 17.6635 97.9719 17.67 97.9745 17.6766L97.9745 17.6765ZM98.3837 15.7191L100 16.2057L98.2011 17.4C98.1641 16.8391 98.2266 16.2712 98.3837 15.719L98.3837 15.7191ZM98.3421 17.6152L100.141 16.4209L99.9435 18.1116C99.3775 18.0388 98.8372 17.8717 98.3421 17.6152L98.3421 17.6152ZM100.197 18.1375L100.419 16.2368L102.314 14.9781L101.961 18.006C101.369 18.1403 100.773 18.1843 100.197 18.1376L100.197 18.1375ZM100.99 12.3091L104.348 13.3199L102.453 14.5786L99.443 13.6725C99.8553 13.149 100.359 12.6762 100.941 12.2813C100.954 12.2927 100.97 12.3035 100.989 12.3092L100.99 12.3091ZM104.077 17.0481C104.074 17.0674 104.078 17.0862 104.084 17.1044C103.493 17.4869 102.864 17.7668 102.226 17.941L102.594 14.7938L104.489 13.5352L104.077 17.0481ZM104.348 16.9238L104.765 13.3514L106.444 12.2363C106.617 14.2525 105.928 15.7904 104.347 16.9238L104.348 16.9238ZM106.305 12.0198L104.625 13.1342L101.209 12.1059C102.866 11.0903 104.537 11.0604 106.305 12.0198L106.305 12.0198ZM99.2793 13.8907C99.2795 13.8917 99.2795 13.8917 99.2805 13.8914L102.174 14.7628L100.278 16.0216L98.4613 15.4738C98.6469 14.9212 98.9227 14.3865 99.2792 13.8907L99.2793 13.8907Z" fill="#F15A24"/>
<path opacity="0.3" d="M176.174 21.4671C176.174 21.4732 176.173 21.4812 176.174 21.4865C176.175 21.4886 176.174 21.4895 176.174 21.4916C176.175 21.4937 176.176 21.4949 176.176 21.4959C176.178 21.5013 176.18 21.5068 176.182 21.5132C176.185 21.5198 176.187 21.5272 176.191 21.5329C176.194 21.5364 176.195 21.5387 176.197 21.542C176.198 21.5431 176.197 21.5451 176.198 21.5453C176.628 22.0991 177.18 22.5506 177.81 22.8908C177.814 22.8934 177.816 22.8968 177.82 22.8984C177.825 22.9012 177.83 22.9021 177.836 22.904C179.078 23.5661 180.623 23.7917 182.173 23.4785C184.316 23.0439 185.721 21.7253 186.354 19.5611L188.25 19.1781C188.318 19.1642 188.364 19.0958 188.351 19.0264C188.34 18.9717 188.297 18.9324 188.246 18.9245C188.231 18.9222 188.217 18.9231 188.201 18.9258L186.306 19.31C185.376 18.1362 184.267 17.4447 182.993 17.2477C182.362 17.1502 181.692 17.173 180.983 17.3163C178.632 17.7923 176.747 19.4081 176.178 21.4321C176.178 21.4341 176.179 21.4352 176.178 21.4371L176.176 21.447C176.173 21.4527 176.174 21.46 176.174 21.4671L176.174 21.4671ZM177.291 19.8081L178.605 20.8678L176.488 21.2964C176.665 20.7628 176.937 20.2602 177.291 19.808L177.291 19.8081ZM176.538 21.5488L178.654 21.1203L177.834 22.612C177.337 22.3312 176.9 21.9729 176.538 21.5488L176.538 21.5488ZM178.059 22.7314L178.981 21.0545L181.211 20.6027L179.743 23.2743C179.143 23.1755 178.575 22.9918 178.059 22.7315L178.059 22.7314ZM180.989 17.6312L183.719 19.8328L181.489 20.2847L179.043 18.3114C179.622 17.9818 180.267 17.7337 180.955 17.5871C180.962 17.6026 180.973 17.6185 180.989 17.6312L180.989 17.6312ZM182.063 23.1841C182.054 23.201 182.05 23.2197 182.049 23.239C181.357 23.3707 180.669 23.3928 180.012 23.3137L181.539 20.5371L183.769 20.0853L182.063 23.1841ZM182.361 23.171L184.094 20.0192L186.069 19.6188C185.469 21.5515 184.252 22.7166 182.361 23.1709L182.361 23.171ZM186.022 19.3658L184.046 19.7651L181.269 17.5257C183.186 17.2091 184.746 17.8112 186.022 19.3659L186.022 19.3658ZM178.809 18.4518C178.809 18.4528 178.809 18.4528 178.81 18.453L181.162 20.3504L178.932 20.8021L177.455 19.6101C177.835 19.1681 178.292 18.7768 178.809 18.4518L178.809 18.4518Z" fill="#F15A24"/>
<path opacity="0.3" d="M185.063 61.5589C185.058 61.5628 185.051 61.5669 185.048 61.5712C185.046 61.5731 185.045 61.5727 185.044 61.5746C185.043 61.5765 185.042 61.5779 185.041 61.5784C185.038 61.5835 185.036 61.5886 185.032 61.5943C185.029 61.6008 185.024 61.6069 185.022 61.6138C185.021 61.6179 185.021 61.6206 185.019 61.6239C185.019 61.6252 185.017 61.6262 185.017 61.6271C184.861 62.3102 184.861 63.0232 184.997 63.7266C184.997 63.7311 184.996 63.7352 184.997 63.7391C184.998 63.7444 185.001 63.7496 185.003 63.7552C185.277 65.1355 186.081 66.4745 187.304 67.4755C188.998 68.8594 190.908 69.1119 192.984 68.2308L194.481 69.4559C194.535 69.5001 194.617 69.4923 194.662 69.4379C194.698 69.3951 194.701 69.3367 194.674 69.2922C194.667 69.2793 194.657 69.2689 194.645 69.2586L193.148 68.0349C193.467 66.5717 193.301 65.276 192.646 64.1649C192.322 63.615 191.88 63.1104 191.32 62.6523C189.463 61.1347 187.019 60.6986 185.092 61.5401C185.091 61.5411 185.09 61.5425 185.088 61.5427L185.079 61.5478C185.073 61.5492 185.068 61.5544 185.063 61.5589L185.063 61.5589ZM187.054 61.3726L187.065 63.0607L185.394 61.6939C185.919 61.4931 186.48 61.3853 187.054 61.3726L187.054 61.3726ZM185.23 61.8921L186.901 63.2588L185.228 63.5686C185.13 63.0063 185.131 62.4408 185.23 61.8921L185.23 61.8921ZM185.278 63.8184L187.159 63.4703L188.921 64.91L185.924 65.4652C185.62 64.9388 185.403 64.3827 185.278 63.8184L185.278 63.8184ZM191.08 62.8568L191.105 66.3638L189.344 64.9242L189.322 61.7812C189.943 62.0207 190.544 62.3628 191.093 62.8021C191.086 62.8179 191.08 62.8362 191.08 62.8567L191.08 62.8568ZM187.463 67.2043C187.444 67.2075 187.427 67.2164 187.411 67.2278C186.871 66.7761 186.418 66.2572 186.064 65.6988L189.179 65.1223L190.941 66.5619L187.463 67.2043ZM187.662 67.4264L191.198 66.7717L192.759 68.047C190.883 68.8068 189.211 68.6024 187.662 67.4263L187.662 67.4264ZM192.925 67.8502L191.364 66.5735L191.339 63.0066C192.798 64.2899 193.32 65.8784 192.925 67.8503L192.925 67.8502ZM189.065 61.689C189.064 61.6895 189.064 61.6895 189.065 61.6904L189.085 64.7126L187.323 63.2721L187.311 61.3744C187.894 61.3888 188.486 61.4946 189.065 61.689L189.065 61.689Z" fill="#F15A24"/>
<path opacity="0.3" d="M154.185 77.494C154.19 77.498 154.195 77.5041 154.2 77.5066C154.202 77.5074 154.202 77.5088 154.204 77.5097C154.206 77.5106 154.207 77.5107 154.208 77.5115C154.213 77.5133 154.219 77.5152 154.225 77.5178C154.232 77.5197 154.239 77.5231 154.246 77.5237C154.25 77.524 154.253 77.5242 154.257 77.5252C154.258 77.5253 154.259 77.5268 154.26 77.5262C154.96 77.5567 155.662 77.4275 156.329 77.1665C156.333 77.1654 156.337 77.1657 156.341 77.1639C156.346 77.1621 156.35 77.1582 156.356 77.1551C157.664 76.6359 158.835 75.6029 159.598 74.2182C160.652 72.302 160.555 70.3775 159.313 68.496L160.246 66.8018C160.28 66.7405 160.257 66.6614 160.196 66.6268C160.147 66.5995 160.089 66.6071 160.05 66.641C160.039 66.6507 160.03 66.6621 160.022 66.6757L159.09 68.37C157.593 68.3207 156.349 68.7191 155.375 69.564C154.893 69.9821 154.477 70.5084 154.127 71.1421C152.971 73.2427 152.985 75.7257 154.161 77.4681C154.162 77.4696 154.164 77.4697 154.164 77.4719L154.171 77.4795C154.173 77.4854 154.179 77.4894 154.185 77.4941L154.185 77.494ZM153.641 75.5696L155.299 75.2524L154.258 77.144C153.965 76.664 153.758 76.1317 153.641 75.5696L153.641 75.5696ZM154.482 77.2695L155.524 75.3779L156.131 76.968C155.596 77.1654 155.04 77.2676 154.482 77.2695L154.482 77.2695ZM156.368 76.8735L155.685 75.0859L156.782 73.0927L157.871 75.9401C157.408 76.3335 156.9 76.6482 156.368 76.8736L156.368 76.8735ZM154.372 71.3406L157.816 70.6815L156.719 72.6746L153.632 73.2651C153.755 72.6102 153.983 71.9578 154.316 71.3385C154.333 71.3426 154.352 71.3448 154.372 71.3407L154.372 71.3406ZM159.302 74.1114C159.309 74.1297 159.321 74.1448 159.335 74.158C158.988 74.7706 158.56 75.3101 158.075 75.76L156.944 72.8001L158.041 70.807L159.302 74.1114ZM159.485 73.8758L158.201 70.5162L159.172 68.7505C160.259 70.4575 160.361 72.1394 159.485 73.8758L159.485 73.8758ZM158.949 68.623L157.976 70.3887L154.472 71.0588C155.47 69.3917 156.938 68.5911 158.949 68.623L158.949 68.623ZM153.588 73.5343C153.589 73.5351 153.589 73.5351 153.59 73.5344L156.558 72.9667L155.46 74.9605L153.596 75.3163C153.505 74.7405 153.502 74.1389 153.588 73.5344L153.588 73.5343Z" fill="#F15A24"/>
</svg>
